<svg width="12" height="24" viewBox="0 0 12 24" fill="none" xmlns="http://www.w3.org/2000/svg">
<path d="M7.03917 5.70348C7.03917 5.9491 7.03917 6.74968 7.03917 7.88705H10.9497L10.5257 11.373H7.03917C7.03917 16.749 7.03917 23.9531 7.03917 23.9531H2.41139C2.41139 23.9531 2.41139 16.8444 2.41139 11.373H0V7.88705H2.41139C2.41139 6.50462 2.41139 5.5216 2.41139 5.2479C2.41139 3.94384 2.31314 3.32509 2.86725 2.31455C3.42164 1.30407 4.98539 -0.0315865 7.69003 0.000569757C10.3953 0.0338979 11.5357 0.294148 11.5357 0.294148L10.9497 4.00932C10.9497 4.00932 9.22219 3.55318 8.37427 3.71574C7.52747 3.87835 7.03917 4.39998 7.03917 5.70348Z" fill="white"/>
</svg>
