<svg width="20" height="23" viewBox="0 0 20 23" fill="none" xmlns="http://www.w3.org/2000/svg">
<path d="M15.6923 4.2372C14.7032 3.08736 14.1851 1.60176 14.2263 0.08928L10.5306 0C10.5306 0 10.5306 0.15768 10.5306 0.37032V15.1906C10.5822 19.8792 3.17433 19.7654 3.76041 14.5829C4.11873 12.5222 6.33297 11.2541 8.30049 11.971V8.20008C4.01697 7.45416 -0.0423858 10.8636 0.000334221 15.2071C0.374734 24.6271 13.8858 24.6283 14.2607 15.2071C14.1663 14.8699 14.2191 8.59248 14.2057 8.06304C15.8862 9.10872 17.8415 9.63144 19.8217 9.56448V5.67C17.991 5.67 16.5939 5.18328 15.6923 4.2372Z" fill="white"/>
</svg>
