<svg width="22" height="22" viewBox="0 0 22 22" fill="none" xmlns="http://www.w3.org/2000/svg">
<path d="M11 21C8.85576 21 7.31273 20.9989 6.1097 20.8823C4.92045 20.767 4.1597 20.5455 3.55258 20.1639C2.85868 19.728 2.27192 19.1413 1.83591 18.4474C1.45455 17.8403 1.23288 17.0795 1.11773 15.8903C1.00106 14.6873 1 13.1442 1 11C1 8.85576 1.00106 7.31273 1.11773 6.1097C1.23288 4.92045 1.45455 4.1597 1.83591 3.55258C2.2719 2.85866 2.85866 2.2719 3.55258 1.83591C4.1597 1.45455 4.92045 1.23288 6.1097 1.11773C7.31258 1.00106 8.85561 1 11 1C13.1442 1 14.6873 1.00106 15.8903 1.11773C17.0795 1.23288 17.8403 1.45455 18.4474 1.83591C19.1413 2.27192 19.728 2.85868 20.1639 3.55258C20.5455 4.1597 20.767 4.92045 20.8823 6.1097C20.9989 7.31273 21 8.85576 21 11C21 13.1442 20.9989 14.6873 20.8823 15.8903C20.767 17.0795 20.5455 17.8403 20.1639 18.4474C19.728 19.1413 19.1413 19.728 18.4474 20.1639C17.8403 20.5455 17.0795 20.767 15.8903 20.8823C14.6873 20.9989 13.1442 21 11 21Z" fill="white" stroke="white" stroke-width="2"/>
</svg>
